<svg xmlns="http://www.w3.org/2000/svg" width="453.543" height="566.929" viewBox="0 0 453.543 566.929"><g opacity=".78"><ellipse fill="#FFF" cx="226.772" cy="549.681" rx="95.827" ry="15.907"/><path fill="#FEFEFE" d="M321.375 549.681c0 8.66-42.348 15.681-94.586 15.681-52.242 0-94.588-7.021-94.588-15.681S174.547 534 226.789 534c52.238 0 94.586 7.021 94.586 15.681z"/><ellipse fill="#FDFDFD" cx="226.806" cy="549.681" rx="93.348" ry="15.454"/><ellipse fill="#FCFCFC" cx="226.822" cy="549.681" rx="92.108" ry="15.229"/><ellipse fill="#FBFBFB" cx="226.838" cy="549.681" rx="90.869" ry="15.002"/><ellipse fill="#FAFAFA" cx="226.855" cy="549.681" rx="89.629" ry="14.775"/><ellipse fill="#F9F9F9" cx="226.872" cy="549.681" rx="88.39" ry="14.55"/><ellipse fill="#F8F8F8" cx="226.888" cy="549.681" rx="87.15" ry="14.322"/><ellipse fill="#F7F7F7" cx="226.905" cy="549.681" rx="85.91" ry="14.097"/><ellipse fill="#F6F6F6" cx="226.921" cy="549.681" rx="84.67" ry="13.87"/><ellipse fill="#F5F5F5" cx="226.938" cy="549.681" rx="83.431" ry="13.644"/><ellipse fill="#F4F4F4" cx="226.955" cy="549.681" rx="82.191" ry="13.418"/><ellipse fill="#F3F3F3" cx="226.972" cy="549.681" rx="80.952" ry="13.191"/><ellipse fill="#F2F2F2" cx="226.989" cy="549.681" rx="79.712" ry="12.965"/><ellipse fill="#F1F1F1" cx="227.004" cy="549.681" rx="78.473" ry="12.738"/><ellipse fill="#F0F0F0" cx="227.021" cy="549.681" rx="77.233" ry="12.513"/><ellipse fill="#EFEFEF" cx="227.038" cy="549.681" rx="75.994" ry="12.285"/><ellipse fill="#EEE" cx="227.055" cy="549.681" rx="74.754" ry="12.06"/><ellipse fill="#EDEDED" cx="227.072" cy="549.681" rx="73.515" ry="11.834"/><ellipse fill="#ECECEC" cx="227.088" cy="549.681" rx="72.275" ry="11.607"/><ellipse fill="#EBEBEB" cx="227.104" cy="549.681" rx="71.036" ry="11.381"/><ellipse fill="#EAEAEA" cx="227.122" cy="549.681" rx="69.796" ry="11.154"/><ellipse fill="#E9E9E9" cx="227.139" cy="549.681" rx="68.557" ry="10.928"/><ellipse fill="#E8E8E8" cx="227.154" cy="549.681" rx="67.317" ry="10.701"/><ellipse fill="#E7E7E7" cx="227.171" cy="549.681" rx="66.077" ry="10.476"/><ellipse fill="#E6E6E6" cx="227.188" cy="549.681" rx="64.838" ry="10.249"/><ellipse fill="#E5E5E5" cx="227.205" cy="549.681" rx="63.598" ry="10.022"/><ellipse fill="#E4E4E4" cx="227.221" cy="549.681" rx="62.359" ry="9.797"/><ellipse fill="#E3E3E3" cx="227.238" cy="549.681" rx="61.12" ry="9.57"/><ellipse fill="#E2E2E2" cx="227.255" cy="549.681" rx="59.88" ry="9.344"/><ellipse fill="#E2E2E2" cx="227.271" cy="549.681" rx="58.64" ry="9.117"/><ellipse fill="#E1E1E1" cx="227.288" cy="549.681" rx="57.401" ry="8.892"/><ellipse fill="#E0E0E0" cx="227.304" cy="549.681" rx="56.162" ry="8.664"/><ellipse fill="#DFDFDF" cx="227.321" cy="549.681" rx="54.921" ry="8.438"/><ellipse fill="#DEDEDE" cx="227.337" cy="549.681" rx="53.682" ry="8.212"/><ellipse fill="#DDD" cx="227.354" cy="549.681" rx="52.442" ry="7.985"/><ellipse fill="#DCDCDC" cx="227.371" cy="549.681" rx="51.203" ry="7.76"/><ellipse fill="#DBDBDB" cx="227.388" cy="549.681" rx="49.964" ry="7.533"/><ellipse fill="#DADADA" cx="227.404" cy="549.681" rx="48.724" ry="7.307"/><ellipse fill="#D9D9D9" cx="227.421" cy="549.681" rx="47.484" ry="7.08"/><ellipse fill="#D8D8D8" cx="227.437" cy="549.681" rx="46.245" ry="6.854"/><ellipse fill="#D7D7D7" cx="227.454" cy="549.681" rx="45.005" ry="6.628"/><ellipse fill="#D6D6D6" cx="227.471" cy="549.681" rx="43.766" ry="6.401"/><ellipse fill="#D5D5D5" cx="227.487" cy="549.681" rx="42.526" ry="6.176"/><ellipse fill="#D4D4D4" cx="227.504" cy="549.681" rx="41.287" ry="5.948"/><ellipse fill="#D3D3D3" cx="227.521" cy="549.681" rx="40.047" ry="5.723"/><ellipse fill="#D2D2D2" cx="227.537" cy="549.681" rx="38.808" ry="5.496"/><ellipse fill="#D1D1D1" cx="227.554" cy="549.681" rx="37.568" ry="5.271"/><ellipse fill="#D0D0D0" cx="227.571" cy="549.681" rx="36.329" ry="5.043"/><ellipse fill="#CFCFCF" cx="227.587" cy="549.681" rx="35.089" ry="4.817"/><ellipse fill="#CECECE" cx="227.604" cy="549.681" rx="33.85" ry="4.591"/><ellipse fill="#CDCDCD" cx="227.621" cy="549.681" rx="32.61" ry="4.364"/><ellipse fill="#CCC" cx="227.637" cy="549.681" rx="31.37" ry="4.139"/><ellipse fill="#CBCBCB" cx="227.653" cy="549.681" rx="30.131" ry="3.912"/><ellipse fill="#CACACA" cx="227.67" cy="549.681" rx="28.891" ry="3.686"/><ellipse fill="#C9C9C9" cx="227.687" cy="549.681" rx="27.652" ry="3.459"/><ellipse fill="#C8C8C8" cx="227.703" cy="549.681" rx="26.412" ry="3.233"/><ellipse fill="#C7C7C7" cx="227.72" cy="549.681" rx="25.172" ry="3.007"/><ellipse fill="#C6C6C6" cx="227.737" cy="549.681" rx="23.933" ry="2.78"/></g><ellipse fill="#6A686A" cx="199.977" cy="384.64" rx="1.259" ry="1.1"/><path fill="#4FB9CA" d="M149.643 371.945l16.95 44.554"/><linearGradient id="a" gradientUnits="userSpaceOnUse" x1="149.643" y1="383.087" x2="168.4" y2="383.087"><stop offset=".266" stop-color="#f15a29"/><stop offset=".679" stop-color="#ef4136"/><stop offset=".764" stop-color="#e83c35"/><stop offset=".884" stop-color="#d62f31"/><stop offset="1" stop-color="#be1e2d"/></linearGradient><path fill="url(#a)" d="M166.593 416.499l1.807-66.822-18.757 22.268z"/><linearGradient id="b" gradientUnits="userSpaceOnUse" x1="120.273" y1="339.691" x2="168.4" y2="339.691"><stop offset="0" stop-color="#f7941e"/><stop offset=".422" stop-color="#f7941e"/><stop offset=".56" stop-color="#f68e1f"/><stop offset=".744" stop-color="#f57d22"/><stop offset=".954" stop-color="#f26128"/><stop offset="1" stop-color="#f15a29"/></linearGradient><path fill="url(#b)" d="M168.4 349.677l-18.757 22.268-29.37-64.507z"/><linearGradient id="c" gradientUnits="userSpaceOnUse" x1="166.593" y1="383.087" x2="209.119" y2="383.087"><stop offset="0" stop-color="#ee2a7b"/><stop offset=".538" stop-color="#ee2a7b"/><stop offset=".736" stop-color="#ce2671"/><stop offset="1" stop-color="#9e1f63"/></linearGradient><path fill="url(#c)" d="M166.593 416.499l1.807-66.822 40.719 35.511z"/><linearGradient id="d" gradientUnits="userSpaceOnUse" x1="120.273" y1="318.343" x2="168.4" y2="318.343"><stop offset=".439" stop-color="#00a79d"/><stop offset=".526" stop-color="#009798"/><stop offset=".72" stop-color="#00788f"/><stop offset=".885" stop-color="#006589"/><stop offset="1" stop-color="#005e87"/></linearGradient><path fill="url(#d)" d="M168.4 349.677l-.855-62.668-47.272 20.429z"/><linearGradient id="e" gradientUnits="userSpaceOnUse" x1="90.497" y1="276.734" x2="167.545" y2="276.734"><stop offset=".266" stop-color="#f15a29"/><stop offset=".679" stop-color="#ef4136"/><stop offset=".764" stop-color="#e83c35"/><stop offset=".884" stop-color="#d62f31"/><stop offset="1" stop-color="#be1e2d"/></linearGradient><path fill="url(#e)" d="M167.545 287.009l-47.272 20.429-29.776-61.408z"/><linearGradient id="f" gradientUnits="userSpaceOnUse" x1="167.545" y1="318.343" x2="198.605" y2="318.343"><stop offset=".266" stop-color="#f15a29"/><stop offset=".679" stop-color="#ef4136"/><stop offset=".764" stop-color="#e83c35"/><stop offset=".884" stop-color="#d62f31"/><stop offset="1" stop-color="#be1e2d"/></linearGradient><path fill="url(#f)" d="M168.4 349.677l-.855-62.668 31.059 40.722z"/><linearGradient id="g" gradientUnits="userSpaceOnUse" x1="90.497" y1="265.345" x2="167.545" y2="265.345"><stop offset="0" stop-color="#f7941e"/><stop offset=".422" stop-color="#f7941e"/><stop offset=".56" stop-color="#f68e1f"/><stop offset=".744" stop-color="#f57d22"/><stop offset=".954" stop-color="#f26128"/><stop offset="1" stop-color="#f15a29"/></linearGradient><path fill="url(#g)" d="M167.545 287.009l-27.441-43.329-49.607 2.35z"/><linearGradient id="h" gradientUnits="userSpaceOnUse" x1="86.18" y1="224.911" x2="140.103" y2="224.911"><stop offset="0" stop-color="#ee2a7b"/><stop offset=".538" stop-color="#ee2a7b"/><stop offset=".736" stop-color="#ce2671"/><stop offset="1" stop-color="#9e1f63"/></linearGradient><path fill="url(#h)" d="M140.104 243.68l-49.607 2.35-4.317-42.238z"/><linearGradient id="i" gradientUnits="userSpaceOnUse" x1="140.103" y1="265.345" x2="237.111" y2="265.345"><stop offset=".439" stop-color="#00a79d"/><stop offset=".526" stop-color="#009798"/><stop offset=".72" stop-color="#00788f"/><stop offset=".885" stop-color="#006589"/><stop offset="1" stop-color="#005e87"/></linearGradient><path fill="url(#i)" d="M167.545 287.009l-27.441-43.329 97.007 5.54z"/><linearGradient id="j" gradientUnits="userSpaceOnUse" x1="86.18" y1="197.333" x2="140.103" y2="197.333"><stop offset=".439" stop-color="#00a79d"/><stop offset=".526" stop-color="#009798"/><stop offset=".72" stop-color="#00788f"/><stop offset=".885" stop-color="#006589"/><stop offset="1" stop-color="#005e87"/></linearGradient><path fill="url(#j)" d="M140.104 243.68l-34.333-92.694-19.591 52.806z"/><path fill="#76C1CA" d="M105.771 150.986L86.18 203.792"/><linearGradient id="k" gradientUnits="userSpaceOnUse" x1="105.77" y1="197.333" x2="155.565" y2="197.333"><stop offset=".266" stop-color="#f15a29"/><stop offset=".679" stop-color="#ef4136"/><stop offset=".764" stop-color="#e83c35"/><stop offset=".884" stop-color="#d62f31"/><stop offset="1" stop-color="#be1e2d"/></linearGradient><path fill="url(#k)" d="M140.104 243.68l-34.333-92.694 49.793 46.982z"/><path fill="#69BACA" d="M105.771 150.986l34.903-31.91"/><linearGradient id="l" gradientUnits="userSpaceOnUse" x1="105.77" y1="135.031" x2="196.905" y2="135.031"><stop offset="0" stop-color="#ee2a7b"/><stop offset=".538" stop-color="#ee2a7b"/><stop offset=".736" stop-color="#ce2671"/><stop offset="1" stop-color="#9e1f63"/></linearGradient><path fill="url(#l)" d="M105.771 150.986l34.903-31.91 56.231 13.398z"/><linearGradient id="m" gradientUnits="userSpaceOnUse" x1="140.674" y1="115.775" x2="196.905" y2="115.775"><stop offset=".439" stop-color="#00a79d"/><stop offset=".526" stop-color="#009798"/><stop offset=".72" stop-color="#00788f"/><stop offset=".885" stop-color="#006589"/><stop offset="1" stop-color="#005e87"/></linearGradient><path fill="url(#m)" d="M178.985 99.077l17.92 33.397-56.231-13.398z"/><linearGradient id="n" gradientUnits="userSpaceOnUse" x1="105.77" y1="165.221" x2="196.905" y2="165.221"><stop offset=".439" stop-color="#00a79d"/><stop offset=".526" stop-color="#009798"/><stop offset=".72" stop-color="#00788f"/><stop offset=".885" stop-color="#006589"/><stop offset="1" stop-color="#005e87"/></linearGradient><path fill="url(#n)" d="M196.905 132.474l-41.341 65.494-49.793-46.982z"/><linearGradient id="o" gradientUnits="userSpaceOnUse" x1="140.103" y1="223.594" x2="237.111" y2="223.594"><stop offset="0" stop-color="#f7941e"/><stop offset=".422" stop-color="#f7941e"/><stop offset=".56" stop-color="#f68e1f"/><stop offset=".744" stop-color="#f57d22"/><stop offset=".954" stop-color="#f26128"/><stop offset="1" stop-color="#f15a29"/></linearGradient><path fill="url(#o)" d="M155.564 197.968l81.547 51.252-97.007-5.54z"/><linearGradient id="p" gradientUnits="userSpaceOnUse" x1="167.545" y1="288.476" x2="237.111" y2="288.476"><stop offset="0" stop-color="#f7941e"/><stop offset=".422" stop-color="#f7941e"/><stop offset=".56" stop-color="#f68e1f"/><stop offset=".744" stop-color="#f57d22"/><stop offset=".954" stop-color="#f26128"/><stop offset="1" stop-color="#f15a29"/></linearGradient><path fill="url(#p)" d="M237.111 249.22l-38.507 78.511-31.059-40.722z"/><linearGradient id="q" gradientUnits="userSpaceOnUse" x1="168.4" y1="356.459" x2="209.119" y2="356.459"><stop offset=".439" stop-color="#00a79d"/><stop offset=".526" stop-color="#009798"/><stop offset=".72" stop-color="#00788f"/><stop offset=".885" stop-color="#006589"/><stop offset="1" stop-color="#005e87"/></linearGradient><path fill="url(#q)" d="M198.604 327.731l10.515 57.457-40.719-35.511z"/><linearGradient id="r" gradientUnits="userSpaceOnUse" x1="198.605" y1="372.451" x2="286.291" y2="372.451"><stop offset=".266" stop-color="#f15a29"/><stop offset=".679" stop-color="#ef4136"/><stop offset=".764" stop-color="#e83c35"/><stop offset=".884" stop-color="#d62f31"/><stop offset="1" stop-color="#be1e2d"/></linearGradient><path fill="url(#r)" d="M286.291 417.171l-77.172-31.983-10.515-57.457z"/><linearGradient id="s" gradientUnits="userSpaceOnUse" x1="198.605" y1="370.674" x2="286.291" y2="370.674"><stop offset="0" stop-color="#ee2a7b"/><stop offset=".538" stop-color="#ee2a7b"/><stop offset=".736" stop-color="#ce2671"/><stop offset="1" stop-color="#9e1f63"/></linearGradient><path fill="url(#s)" d="M286.291 417.171l-43.486-92.994-44.201 3.554z"/><linearGradient id="t" gradientUnits="userSpaceOnUse" x1="198.605" y1="288.476" x2="242.805" y2="288.476"><stop offset=".439" stop-color="#00a79d"/><stop offset=".526" stop-color="#009798"/><stop offset=".72" stop-color="#00788f"/><stop offset=".885" stop-color="#006589"/><stop offset="1" stop-color="#005e87"/></linearGradient><path fill="url(#t)" d="M242.805 324.177l-44.201 3.554 38.507-78.511z"/><linearGradient id="u" gradientUnits="userSpaceOnUse" x1="242.805" y1="370.674" x2="297.836" y2="370.674"><stop offset=".266" stop-color="#f15a29"/><stop offset=".679" stop-color="#ef4136"/><stop offset=".764" stop-color="#e83c35"/><stop offset=".884" stop-color="#d62f31"/><stop offset="1" stop-color="#be1e2d"/></linearGradient><path fill="url(#u)" d="M286.291 417.171l-43.486-92.994 55.031 55.603z"/><linearGradient id="v" gradientUnits="userSpaceOnUse" x1="237.111" y1="273.293" x2="286.28" y2="273.293"><stop offset="0" stop-color="#f7941e"/><stop offset=".422" stop-color="#f7941e"/><stop offset=".56" stop-color="#f68e1f"/><stop offset=".744" stop-color="#f57d22"/><stop offset=".954" stop-color="#f26128"/><stop offset="1" stop-color="#f15a29"/></linearGradient><path fill="url(#v)" d="M242.805 324.177l43.475-101.769-49.169 26.812z"/><linearGradient id="w" gradientUnits="userSpaceOnUse" x1="155.565" y1="223.594" x2="286.28" y2="223.594"><stop offset=".266" stop-color="#f15a29"/><stop offset=".679" stop-color="#ef4136"/><stop offset=".764" stop-color="#e83c35"/><stop offset=".884" stop-color="#d62f31"/><stop offset="1" stop-color="#be1e2d"/></linearGradient><path fill="url(#w)" d="M286.28 222.408l-49.169 26.812-81.547-51.252z"/><linearGradient id="x" gradientUnits="userSpaceOnUse" x1="242.805" y1="273.293" x2="295.488" y2="273.293"><stop offset="0" stop-color="#ee2a7b"/><stop offset=".538" stop-color="#ee2a7b"/><stop offset=".736" stop-color="#ce2671"/><stop offset="1" stop-color="#9e1f63"/></linearGradient><path fill="url(#x)" d="M242.805 324.177l43.475-101.769 9.208 47.078z"/><linearGradient id="y" gradientUnits="userSpaceOnUse" x1="155.565" y1="183.331" x2="286.28" y2="183.331"><stop offset=".439" stop-color="#00a79d"/><stop offset=".526" stop-color="#009798"/><stop offset=".72" stop-color="#00788f"/><stop offset=".885" stop-color="#006589"/><stop offset="1" stop-color="#005e87"/></linearGradient><path fill="url(#y)" d="M286.28 222.408l-48.395-78.155-82.321 53.715z"/><linearGradient id="z" gradientUnits="userSpaceOnUse" x1="155.565" y1="165.221" x2="237.885" y2="165.221"><stop offset="0" stop-color="#ee2a7b"/><stop offset=".538" stop-color="#ee2a7b"/><stop offset=".736" stop-color="#ce2671"/><stop offset="1" stop-color="#9e1f63"/></linearGradient><path fill="url(#z)" d="M237.885 144.253l-82.321 53.715 41.341-65.494z"/><linearGradient id="A" gradientUnits="userSpaceOnUse" x1="237.885" y1="183.331" x2="321.353" y2="183.331"><stop offset="0" stop-color="#ee2a7b"/><stop offset=".538" stop-color="#ee2a7b"/><stop offset=".736" stop-color="#ce2671"/><stop offset="1" stop-color="#9e1f63"/></linearGradient><path fill="url(#A)" d="M286.28 222.408l-48.395-78.155 83.469 65.17z"/><linearGradient id="B" gradientUnits="userSpaceOnUse" x1="196.905" y1="118.364" x2="237.885" y2="118.364"><stop offset=".266" stop-color="#f15a29"/><stop offset=".679" stop-color="#ef4136"/><stop offset=".764" stop-color="#e83c35"/><stop offset=".884" stop-color="#d62f31"/><stop offset="1" stop-color="#be1e2d"/></linearGradient><path fill="url(#B)" d="M237.885 144.253L217.73 92.474l-20.825 40z"/><linearGradient id="C" gradientUnits="userSpaceOnUse" x1="178.985" y1="112.474" x2="217.731" y2="112.474"><stop offset="0" stop-color="#f7941e"/><stop offset=".422" stop-color="#f7941e"/><stop offset=".56" stop-color="#f68e1f"/><stop offset=".744" stop-color="#f57d22"/><stop offset=".954" stop-color="#f26128"/><stop offset="1" stop-color="#f15a29"/></linearGradient><path fill="url(#C)" d="M217.73 92.474l-20.825 40-17.92-33.397z"/><linearGradient id="D" gradientUnits="userSpaceOnUse" x1="217.731" y1="126.887" x2="353.915" y2="126.887"><stop offset="0" stop-color="#f7941e"/><stop offset=".422" stop-color="#f7941e"/><stop offset=".56" stop-color="#f68e1f"/><stop offset=".744" stop-color="#f57d22"/><stop offset=".954" stop-color="#f26128"/><stop offset="1" stop-color="#f15a29"/></linearGradient><path fill="url(#D)" d="M237.885 144.253L217.73 92.474 353.915 161.3z"/><linearGradient id="E" gradientUnits="userSpaceOnUse" x1="217.731" y1="126.887" x2="353.915" y2="126.887"><stop offset=".439" stop-color="#00a79d"/><stop offset=".526" stop-color="#009798"/><stop offset=".72" stop-color="#00788f"/><stop offset=".885" stop-color="#006589"/><stop offset="1" stop-color="#005e87"/></linearGradient><path fill="url(#E)" d="M276.32 99.623l77.595 61.677L217.73 92.474z"/><linearGradient id="F" gradientUnits="userSpaceOnUse" x1="237.885" y1="176.838" x2="353.915" y2="176.838"><stop offset=".266" stop-color="#f15a29"/><stop offset=".679" stop-color="#ef4136"/><stop offset=".764" stop-color="#e83c35"/><stop offset=".884" stop-color="#d62f31"/><stop offset="1" stop-color="#be1e2d"/></linearGradient><path fill="url(#F)" d="M353.915 161.3l-32.561 48.123-83.469-65.17z"/><path fill="#4A48CA" d="M321.354 209.423l-25.866 60.063-9.208-47.078z"/><linearGradient id="G" gradientUnits="userSpaceOnUse" x1="242.805" y1="324.633" x2="297.836" y2="324.633"><stop offset="0" stop-color="#f7941e"/><stop offset=".422" stop-color="#f7941e"/><stop offset=".56" stop-color="#f68e1f"/><stop offset=".744" stop-color="#f57d22"/><stop offset=".954" stop-color="#f26128"/><stop offset="1" stop-color="#f15a29"/></linearGradient><path fill="url(#G)" d="M295.488 269.486l2.348 110.294-55.031-55.603z"/><path fill="#4A48CA" d="M286.291 417.171l11.545-37.391"/><path fill="#4A3FCA" d="M313.986 343.188l-16.15 36.592"/><linearGradient id="H" gradientUnits="userSpaceOnUse" x1="295.488" y1="324.633" x2="313.986" y2="324.633"><stop offset=".439" stop-color="#00a79d"/><stop offset=".526" stop-color="#009798"/><stop offset=".72" stop-color="#00788f"/><stop offset=".885" stop-color="#006589"/><stop offset="1" stop-color="#005e87"/></linearGradient><path fill="url(#H)" d="M313.986 343.188l-16.15 36.592-2.348-110.294z"/><linearGradient id="I" gradientUnits="userSpaceOnUse" x1="295.488" y1="306.337" x2="346.247" y2="306.337"><stop offset="0" stop-color="#ee2a7b"/><stop offset=".538" stop-color="#ee2a7b"/><stop offset=".736" stop-color="#ce2671"/><stop offset="1" stop-color="#9e1f63"/></linearGradient><path fill="url(#I)" d="M313.986 343.188l32.261-60.047-50.759-13.655z"/><linearGradient id="J" gradientUnits="userSpaceOnUse" x1="295.488" y1="246.282" x2="346.247" y2="246.282"><stop offset=".439" stop-color="#00a79d"/><stop offset=".526" stop-color="#009798"/><stop offset=".72" stop-color="#00788f"/><stop offset=".885" stop-color="#006589"/><stop offset="1" stop-color="#005e87"/></linearGradient><path fill="url(#J)" d="M346.247 283.141l-50.759-13.655 25.866-60.063z"/><linearGradient id="K" gradientUnits="userSpaceOnUse" x1="321.353" y1="246.282" x2="364.418" y2="246.282"><stop offset=".266" stop-color="#f15a29"/><stop offset=".679" stop-color="#ef4136"/><stop offset=".764" stop-color="#e83c35"/><stop offset=".884" stop-color="#d62f31"/><stop offset="1" stop-color="#be1e2d"/></linearGradient><path fill="url(#K)" d="M346.247 283.141l18.171-38.198-43.064-35.52z"/><linearGradient id="L" gradientUnits="userSpaceOnUse" x1="321.353" y1="203.122" x2="364.418" y2="203.122"><stop offset="0" stop-color="#ee2a7b"/><stop offset=".538" stop-color="#ee2a7b"/><stop offset=".736" stop-color="#ce2671"/><stop offset="1" stop-color="#9e1f63"/></linearGradient><path fill="url(#L)" d="M364.418 244.943l-43.064-35.52 32.561-48.123z"/><linearGradient id="M" gradientUnits="userSpaceOnUse" x1="276.32" y1="130.461" x2="353.915" y2="130.461"><stop offset="0" stop-color="#ee2a7b"/><stop offset=".538" stop-color="#ee2a7b"/><stop offset=".736" stop-color="#ce2671"/><stop offset="1" stop-color="#9e1f63"/></linearGradient><path fill="url(#M)" d="M321.979 124.853l31.936 36.447-77.595-61.677z"/><linearGradient id="N" gradientUnits="userSpaceOnUse" x1="209.123" y1="400.744" x2="286.295" y2="400.744"><stop offset="0" stop-color="#f7941e"/><stop offset=".422" stop-color="#f7941e"/><stop offset=".56" stop-color="#f68e1f"/><stop offset=".744" stop-color="#f57d22"/><stop offset=".954" stop-color="#f26128"/><stop offset="1" stop-color="#f15a29"/></linearGradient><path fill="url(#N)" d="M286.295 416.737l-77.172-31.986 18.092 31.653z"/><linearGradient id="O" gradientUnits="userSpaceOnUse" x1="199.727" y1="400.578" x2="227.215" y2="400.578"><stop offset="0" stop-color="#ee2a7b"/><stop offset=".538" stop-color="#ee2a7b"/><stop offset=".736" stop-color="#ce2671"/><stop offset="1" stop-color="#9e1f63"/></linearGradient><path fill="url(#O)" d="M227.215 416.404l-18.092-31.653-9.395 31.499z"/><linearGradient id="P" gradientUnits="userSpaceOnUse" x1="166.593" y1="400.502" x2="209.123" y2="400.502"><stop offset=".439" stop-color="#00a79d"/><stop offset=".526" stop-color="#009798"/><stop offset=".72" stop-color="#00788f"/><stop offset=".885" stop-color="#006589"/><stop offset="1" stop-color="#005e87"/></linearGradient><path fill="url(#P)" d="M209.123 384.751l-42.53 31.313 33.135.186z"/><linearGradient id="Q" gradientUnits="userSpaceOnUse" x1="353.915" y1="202.121" x2="367.364" y2="202.121"><stop offset=".439" stop-color="#00a79d"/><stop offset=".526" stop-color="#009798"/><stop offset=".72" stop-color="#00788f"/><stop offset=".885" stop-color="#006589"/><stop offset="1" stop-color="#005e87"/></linearGradient><path fill="url(#Q)" d="M353.915 161.3l13.449 48.383-3.283 33.259z"/><linearGradient id="R" gradientUnits="userSpaceOnUse" x1="221.238" y1="31.695" x2="240.061" y2="31.695"><stop offset="0" stop-color="#ee2a7b"/><stop offset=".538" stop-color="#ee2a7b"/><stop offset=".736" stop-color="#ce2671"/><stop offset="1" stop-color="#9e1f63"/></linearGradient><path fill="url(#R)" d="M230.65 62.05a9.409 9.409 0 0 0 9.411-9.411V10.75a9.406 9.406 0 0 0-9.411-9.41c-5.195 0-9.412 4.212-9.412 9.41v41.889c0 5.2 4.217 9.411 9.412 9.411z"/><linearGradient id="S" gradientUnits="userSpaceOnUse" x1="326.177" y1="69.047" x2="369.256" y2="69.047"><stop offset=".266" stop-color="#f15a29"/><stop offset=".679" stop-color="#ef4136"/><stop offset=".764" stop-color="#e83c35"/><stop offset=".884" stop-color="#d62f31"/><stop offset="1" stop-color="#be1e2d"/></linearGradient><path fill="url(#S)" d="M330.143 93.794a9.35 9.35 0 0 0 5.438 1.736 9.41 9.41 0 0 0 7.685-3.958l24.256-34.141c3.008-4.242 2.003-10.122-2.229-13.13-4.229-3.008-10.104-2.014-13.122 2.219l-24.255 34.146c-3.013 4.238-2.01 10.117 2.227 13.128z"/><linearGradient id="T" gradientUnits="userSpaceOnUse" x1="392.315" y1="167.3" x2="450.696" y2="167.3"><stop offset="0" stop-color="#005e87"/><stop offset=".115" stop-color="#006589"/><stop offset=".28" stop-color="#00788f"/><stop offset=".474" stop-color="#009798"/><stop offset=".561" stop-color="#00a79d"/></linearGradient><path fill="url(#T)" d="M404.824 183.077l39.552-13.778c4.912-1.716 7.506-7.082 5.792-11.991-1.717-4.905-7.085-7.496-11.987-5.79l-39.55 13.785c-4.911 1.713-7.499 7.081-5.79 11.991 1.35 3.878 4.99 6.314 8.887 6.314a9.46 9.46 0 0 0 3.096-.531z"/><linearGradient id="U" gradientUnits="userSpaceOnUse" x1="84.286" y1="69.047" x2="127.373" y2="69.047"><stop offset="0" stop-color="#f7941e"/><stop offset=".422" stop-color="#f7941e"/><stop offset=".56" stop-color="#f68e1f"/><stop offset=".744" stop-color="#f57d22"/><stop offset=".954" stop-color="#f26128"/><stop offset="1" stop-color="#f15a29"/></linearGradient><path fill="url(#U)" d="M110.288 91.573a9.404 9.404 0 0 0 7.69 3.958 9.34 9.34 0 0 0 5.43-1.736c4.242-3.012 5.236-8.891 2.224-13.127l-24.265-34.146c-3.009-4.233-8.883-5.227-13.115-2.219-4.237 3.008-5.237 8.888-2.229 13.13l24.265 34.14z"/><linearGradient id="V" gradientUnits="userSpaceOnUse" x1="2.847" y1="167.299" x2="61.23" y2="167.299"><stop offset=".439" stop-color="#00a79d"/><stop offset=".526" stop-color="#009798"/><stop offset=".72" stop-color="#00788f"/><stop offset=".885" stop-color="#006589"/><stop offset="1" stop-color="#005e87"/></linearGradient><path fill="url(#V)" d="M54.91 165.302l-39.551-13.785c-4.918-1.706-10.275.885-11.985 5.79-1.711 4.909.884 10.275 5.785 11.991l39.553 13.778a9.366 9.366 0 0 0 3.102.529 9.422 9.422 0 0 0 8.889-6.32 9.407 9.407 0 0 0-5.793-11.983z"/><path fill="#2B2F3E" d="M279.997 420.973H173.542c-5.841 0-10.577 4.736-10.577 10.586 0 5.845 4.736 10.583 10.577 10.583h106.455c5.842 0 10.581-4.738 10.581-10.583 0-5.85-4.739-10.586-10.581-10.586zm-6.893 25.023h-92.668a10.583 10.583 0 0 0-10.586 10.589c0 5.848 4.741 10.586 10.586 10.586h92.668c5.849 0 10.59-4.738 10.59-10.586a10.586 10.586 0 0 0-10.59-10.589zm-9.952 25.028h-72.765c-5.849 0-10.583 4.736-10.583 10.576a10.576 10.576 0 0 0 10.583 10.586h72.765c5.85 0 10.586-4.73 10.586-10.586 0-5.84-4.736-10.576-10.586-10.576zm-36.384 45.607c13.329 0 24.694-8.295 29.284-19.993h-58.561c4.592 11.698 15.952 19.993 29.277 19.993z"/></svg>